#!OML:ASF H:\Punching\Project 1\Capture day 1\Session 1\female.ASF
:FULLY-SPECIFIED
:DEGREES
2302
root -1.85966 15.0434 10.4074 14.2829 11.1858 1.85981
lowerback -1.40247 -0.484194 -1.18853
upperback -7.12814 -0.739647 -1.52536
thorax -6.62557 -0.340315 -0.893607
lowerneck -10.6033 -7.16722 -0.307061
upperneck 34.1894 -12.9649 6.86548
head 13.9508 -4.7952 0.85363
rclavicle 1.37783e-014 -2.38542e-015
rhumerus 36.3027 -22.9078 -23.2012
rradius 54.1245
rwrist 15.6995
rhand -32.0571 12.6447
rfingers 7.12502
rthumb -5.30384 -17.2689
lclavicle 1.37783e-014 -2.38542e-015
lhumerus -71.3985 -13.3327 89.821
lradius 94.9722
lwrist 9.40696
lhand -18.9812 6.24245
lfingers 7.12502
lthumb 7.32328 36.0957
rfemur -39.0676 -8.52746 15.037
rtibia 51.9466
rfoot -21.118 -12.369
rtoes -5.63432
lfemur 5.91308 -14.9032 -4.36988
ltibia -1.59028e-014
lfoot -10.1727 18.4372
ltoes -13.4784
2303
root -1.8417 15.0529 10.3901 14.172 11.138 1.74436
lowerback -1.3918 -0.467657 -1.14509
upperback -7.10539 -0.713994 -1.48054
thorax -6.60678 -0.328742 -0.872132
lowerneck -10.5948 -7.06184 -0.192722
upperneck 34.2745 -12.8283 6.82026
head 13.9673 -4.72305 0.839273
rclavicle 1.42752e-014 -2.78299e-015
rhumerus 36.2043 -22.3673 -23.2287
rradius 54.6016
rwrist 15.3405
rhand -31.7584 12.6627
rfingers 7.12502
rthumb -5.01548 -17.2579
lclavicle 1.42752e-014 -2.78299e-015
lhumerus -71.015 -13.6697 89.5918
lradius 95.3443
lwrist 9.47494
lhand -18.9502 6.37698
lfingers 7.12502
lthumb 7.35319 36.2292
rfemur -38.8959 -8.40752 15.0471
rtibia 51.6531
rfoot -20.8677 -12.3952
rtoes -5.67096
lfemur 5.91201 -14.7062 -4.19799
ltibia -1.27222e-014
lfoot -9.88315 17.7146
ltoes -13.5345
2304
root -1.82101 15.0622 10.3711 14.0521 11.0733 1.64318
lowerback -1.37972 -0.446481 -1.11449
upperback -7.0746 -0.683126 -1.45025
thorax -6.58025 -0.314343 -0.858822
lowerneck -10.5664 -6.96051 -0.0768965
upperneck 34.3311 -12.7003 6.79389
head 13.969 -4.65414 0.831454
rclavicle -1.92635e-014 -3.57812e-015
rhumerus 36.0489 -21.8131 -23.2195
rradius 55.1263
rwrist 15.1525
rhand -31.5095 12.6208
rfingers 7.12502
rthumb -4.77516 -17.3054
lclavicle -1.92635e-014 -3.57812e-015
lhumerus -70.6024 -14.0234 89.3386
lradius 95.7528
lwrist 9.60643
lhand -18.9068 6.55047
lfingers 7.12502
lthumb 7.39507 36.4012
rfemur -38.7175 -8.26341 15.0239
rtibia 51.356
rfoot -20.6043 -12.4426
rtoes -5.71758
lfemur 5.9231 -14.5 -4.05539
ltibia -3.18055e-015
lfoot -9.61327 16.9616
ltoes -13.6056
2305
root -1.79711 15.0714 10.3505 13.9216 10.9933 1.55618
lowerback -1.36528 -0.420384 -1.08738
upperback -7.03688 -0.646558 -1.43606
thorax -6.54784 -0.297471 -0.860574
lowerneck -10.5496 -6.87165 0.0361364
upperneck 34.3902 -12.5934 6.7732
head 13.9767 -4.59349 0.822403
rclavicle 2.49102e-015 -6.36111e-015
rhumerus 35.852 -21.2507 -23.2041
rradius 55.6906
rwrist 15.1232
rhand -31.3561 12.4999
rfingers 7.12502
rthumb -4.62696 -17.4296
lclavicle 2.49102e-015 -6.36111e-015
lhumerus -70.153 -14.3959 89.0602
lradius 96.1846
lwrist 9.77938
lhand -18.8532 6.7314
lfingers 7.12502
lthumb 7.44681 36.5803
rfemur -38.5288 -8.1072 14.9673
rtibia 51.054
rfoot -20.3281 -12.5005
rtoes -5.77766
lfemur 5.95125 -14.2866 -3.94667
ltibia 2.54444e-014
lfoot -9.36757 16.1888
ltoes -13.6644
2306
root -1.7699 15.0806 10.3283 13.7805 10.898 1.47426
lowerback -1.35009 -0.388585 -1.05311
upperback -6.99517 -0.60285 -1.43544
thorax -6.51179 -0.277921 -0.880765
lowerneck -10.5457 -6.79492 0.14876
upperneck 34.4582 -12.5064 6.752
head 13.9925 -4.54072 0.809484
rclavicle -1.84994e-014 -2.3059e-014
rhumerus 35.6355 -20.6904 -23.2228
rradius 56.2887
rwrist 15.2055
rhand -31.1848 12.3624
rfingers 7.12502
rthumb -4.46156 -17.5706
lclavicle -1.84994e-014 -2.3059e-014
lhumerus -69.6673 -14.7868 88.7594
lradius 96.6328
lwrist 9.96925
lhand -18.8023 6.91716
lfingers 7.12502
lthumb 7.49601 36.7643
rfemur -38.3327 -7.93874 14.8864
rtibia 50.7462
rfoot -20.0388 -12.5597
rtoes -5.8335
lfemur 5.99718 -14.0639 -3.86442
ltibia 6.36111e-015
lfoot -9.14677 15.4173
ltoes -13.7005
2307
root -1.73923 15.0894 10.3045 13.6306 10.7863 1.39429
lowerback -1.33711 -0.352468 -1.00894
upperback -6.94971 -0.55354 -1.44464
thorax -6.4706 -0.25648 -0.916953
lowerneck -10.5567 -6.7267 0.262236
upperneck 34.5357 -12.4319 6.72351
head 14.0161 -4.4933 0.790891
rclavicle -3.75703e-014 -1.90833e-014
rhumerus 35.4289 -20.1438 -23.3143
rradius 56.913
rwrist 15.3503
rhand -30.9588 12.2318
rfingers 7.12502
rthumb -4.24336 -17.7057
lclavicle -3.75703e-014 -1.90833e-014
lhumerus -69.1392 -15.1887 88.4346
lradius 97.0892
lwrist 10.1446
lhand -18.7492 7.10473
lfingers 7.12502
lthumb 7.54721 36.9501
rfemur -38.1295 -7.76197 14.7869
rtibia 50.43
rfoot -19.7346 -12.6213
rtoes -5.9194
lfemur 4.57306 -13.6539 -3.74022
ltibia 2.9335
lfoot -10.4668 14.4865
ltoes -13.7133
2308
root -1.70481 15.0979 10.2789 13.4717 10.6679 1.31899
lowerback -1.32486 -0.31527 -0.950723
upperback -6.90264 -0.502977 -1.46459
thorax -6.42742 -0.235541 -0.97223
lowerneck -10.576 -6.6631 0.379834
upperneck 34.6248 -12.3641 6.68558
head 14.0462 -4.44866 0.766457
rclavicle 6.93262e-015 -1.47101e-014
rhumerus 35.2292 -19.6069 -23.4859
rradius 57.5724
rwrist 15.4821
rhand -30.7511 12.0379
rfingers 7.12502
rthumb -4.04281 -17.9035
lclavicle 6.93262e-015 -1.47101e-014
lhumerus -68.5707 -15.6012 88.086
lradius 97.5458
lwrist 10.2755
lhand -18.6979 7.29005
lfingers 7.12502
lthumb 7.59673 37.1336
rfemur -37.9158 -7.59186 14.666
rtibia 50.1045
rfoot -19.4199 -12.6761
rtoes -6.03207
lfemur 3.56782 -13.2875 -3.67572
ltibia 5.07853
lfoot -11.4091 13.6343
ltoes -13.7166
2309
root -1.66711 15.106 10.2513 13.307 10.5383 1.2358
lowerback -1.31386 -0.275858 -0.874127
upperback -6.85753 -0.449276 -1.48938
thorax -6.38567 -0.214191 -1.04295
lowerneck -10.5839 -6.59532 0.507149
upperneck 34.7081 -12.2891 6.64181
head 14.0697 -4.40115 0.739638
rclavicle -2.56308e-014 1.31198e-014
rhumerus 35.0365 -19.0788 -23.7364
rradius 58.275
rwrist 15.5229
rhand -30.4322 11.8359
rfingers 7.12502
rthumb -3.73484 -18.1111
lclavicle -2.56308e-014 1.31198e-014
lhumerus -67.9606 -16.02 87.7124
lradius 97.9994
lwrist 10.3386
lhand -18.6461 7.47533
lfingers 7.12502
lthumb 7.64677 37.3171
rfemur -37.7003 -7.41192 14.5381
rtibia 49.7673
rfoot -19.0917 -12.7311
rtoes -6.14948
lfemur 2.93402 -12.9532 -3.64543
ltibia 6.51038
lfoot -12.0199 12.8589
ltoes -13.757
